<svg width="73" height="74" viewBox="0 0 73 74" fill="none" xmlns="http://www.w3.org/2000/svg">
<g clip-path="url(#clip0_172_100)">
<path d="M71.8014 26.8331C70.8133 22.9561 69.2098 19.2239 67.0232 15.8618C65.7599 13.8992 64.3021 12.0652 62.6986 10.3761C62.5852 10.2474 62.4233 10.3118 62.3585 10.4405C61.5486 9.62003 60.6902 8.84785 59.7994 8.12394C59.767 8.10785 59.7508 8.07568 59.7184 8.05959C59.4268 7.81829 59.1191 7.57698 58.8275 7.35177C58.7304 7.27133 58.6332 7.20698 58.536 7.12655C58.293 6.94959 58.0501 6.75655 57.7909 6.59568C57.6776 6.51524 57.5642 6.43481 57.4508 6.35437C57.2078 6.17742 56.9487 6.01655 56.6895 5.83959C56.5923 5.77524 56.479 5.69481 56.3818 5.63046C56.0255 5.40524 55.6691 5.18003 55.2966 4.95481C55.2966 4.95481 55.2642 4.93872 55.248 4.92263C55.005 4.77785 54.7621 4.63307 54.5029 4.50437C54.4705 4.48829 54.4381 4.4722 54.4058 4.45611C54.1628 4.31133 53.9036 4.18263 53.6607 4.05394C53.6445 4.05394 53.6121 4.03785 53.5959 4.02177C52.5431 3.47481 51.4417 2.97611 50.3241 2.52568C50.3079 2.52568 50.2755 2.50959 50.2593 2.4935C50.0326 2.39698 49.7896 2.31655 49.5628 2.22003C49.4819 2.18785 49.4009 2.15568 49.3199 2.13959C49.1093 2.05916 48.8826 1.97872 48.6558 1.91437C48.5586 1.8822 48.4614 1.85003 48.3643 1.81785C48.1537 1.7535 47.9431 1.67307 47.7164 1.60872C47.603 1.57655 47.5058 1.54437 47.3924 1.5122C47.1819 1.44785 46.9713 1.3835 46.7446 1.31916C46.6474 1.28698 46.534 1.2709 46.4368 1.23872C45.7241 1.04568 45.0115 0.868722 44.2826 0.723939C44.1368 0.691765 44.0073 0.659592 43.8615 0.643505C43.6833 0.611331 43.5052 0.579157 43.3108 0.546983C43.1488 0.514809 42.9869 0.482635 42.8249 0.466548C42.6467 0.434374 42.4685 0.418287 42.2904 0.386113C42.1122 0.353939 41.9502 0.337852 41.7721 0.321765C41.5939 0.305678 41.4319 0.273505 41.2538 0.257418C41.0756 0.241331 40.8812 0.209157 40.7031 0.19307C40.5411 0.176983 40.3791 0.160896 40.2172 0.144809C40.0066 0.128722 39.796 0.112635 39.6017 0.0965481C39.4559 0.0965481 39.3101 0.0804611 39.1644 0.0643741C38.8242 0.0482872 38.4679 0.0322002 38.1277 0.0161133C38.0468 0.0161133 37.9496 0.0161133 37.8686 0.0161133C37.5932 0.0161133 37.3341 0.0161133 37.0587 0.0161133C36.9292 0.0161133 36.7834 0.0161133 36.6538 0.0161133C36.4271 0.0161133 36.2003 0.0161133 35.9735 0.0161133C35.8278 0.0161133 35.682 0.0161133 35.5362 0.0322002C35.3095 0.0322002 35.0989 0.0482872 34.8721 0.0643741C34.7264 0.0643741 34.5806 0.0804611 34.4348 0.0965481C34.2081 0.112635 33.9813 0.128722 33.7545 0.144809C33.6088 0.144809 33.4792 0.176983 33.3334 0.176983C33.0905 0.209157 32.8313 0.225244 32.5884 0.257418C32.475 0.257418 32.3454 0.289592 32.232 0.305678C31.8595 0.353939 31.487 0.4022 31.1144 0.466548C29.8349 0.675678 28.5553 0.949157 27.2919 1.28698C27.0166 1.36742 26.7412 1.43177 26.4659 1.5122C26.4173 1.5122 26.3849 1.54437 26.3363 1.54437C25.9476 1.65698 25.5588 1.78568 25.1701 1.91437C25.0405 1.96264 24.9272 1.99481 24.7976 2.04307C24.4898 2.15568 24.1983 2.2522 23.8906 2.36481C23.761 2.41307 23.6314 2.46133 23.5018 2.50959C23.2103 2.6222 22.9025 2.7509 22.611 2.8635C22.4976 2.91177 22.3842 2.96003 22.2709 3.00829C21.9307 3.15307 21.6068 3.29785 21.2828 3.44264C21.218 3.47481 21.1533 3.50698 21.0885 3.52307C19.4364 4.29524 17.8653 5.19611 16.3913 6.17742C13.1843 8.33307 10.4146 10.9392 8.11465 13.8831C7.01325 15.2826 6.02523 16.7626 5.15059 18.307C5.15059 18.307 5.15059 18.3231 5.15059 18.3392C4.77806 18.9826 4.43792 19.6422 4.09779 20.3179C4.09779 20.3179 4.09779 20.35 4.08159 20.3661C3.75765 21.0257 3.44991 21.7013 3.15836 22.3931C3.15836 22.4092 3.15836 22.4252 3.14216 22.4413C2.85062 23.1331 2.57527 23.8409 2.33231 24.5487C2.25133 24.7739 2.17034 24.9992 2.10555 25.2244C2.10555 25.2726 2.07316 25.3048 2.05696 25.3531C1.8464 26.0126 1.63584 26.6883 1.45767 27.3639C1.44148 27.4283 1.42528 27.4926 1.40908 27.557C1.26331 28.0879 1.14993 28.6026 1.03655 29.1335C0.939367 28.9887 0.680215 28.9565 0.647821 29.1818C-0.0810454 33.2518 -0.194425 37.4183 0.291486 41.5205C0.793594 45.6065 1.8626 49.6283 3.51469 53.4087C4.45412 55.5644 5.57172 57.6235 6.86748 59.5861C6.94846 59.7148 7.12663 59.6987 7.20762 59.6183C7.35339 59.8274 7.49916 60.0205 7.64494 60.2296C7.88789 60.5513 8.11465 60.857 8.35761 61.1626C8.42239 61.2431 8.47098 61.3074 8.53577 61.3879C8.77873 61.6935 9.02168 61.9831 9.28084 62.2726C9.29703 62.2887 9.31323 62.3048 9.32943 62.3209C9.57238 62.5944 9.81534 62.8679 10.0583 63.1252C10.1231 63.1896 10.1879 63.2539 10.2527 63.3344C10.5118 63.6079 10.771 63.8813 11.0463 64.1387C11.0787 64.1709 11.1111 64.2031 11.1435 64.2352C11.3864 64.4766 11.6456 64.7018 11.8886 64.9431C11.9533 65.0074 12.0181 65.0718 12.0991 65.1361C12.3745 65.3774 12.6498 65.6348 12.9414 65.86C12.99 65.8922 13.0385 65.9405 13.0709 65.9726C13.3139 66.1818 13.573 66.3909 13.8322 66.5839C13.897 66.6322 13.978 66.6966 14.0428 66.7448C14.3343 66.97 14.6259 67.1792 14.9174 67.4044C14.9822 67.4526 15.0308 67.4848 15.0956 67.5331C15.3547 67.71 15.6139 67.887 15.873 68.0639C15.954 68.1122 16.0188 68.1605 16.0998 68.2087C16.4075 68.4018 16.6991 68.5948 17.0068 68.7879C17.0716 68.8361 17.1526 68.8683 17.2174 68.9165C17.4765 69.0774 17.7357 69.2222 18.011 69.367C18.092 69.4152 18.173 69.4474 18.2378 69.4957C18.5455 69.6726 18.8695 69.8335 19.1772 69.9944C19.2582 70.0426 19.3392 70.0748 19.4202 70.1231C19.6793 70.2518 19.9547 70.3805 20.23 70.5092C20.311 70.5413 20.392 70.5896 20.473 70.6218C20.7969 70.7666 21.1209 70.9113 21.4448 71.0561C21.542 71.0883 21.623 71.1366 21.7202 71.1687C21.9955 71.2813 22.2709 71.3939 22.5462 71.4905C22.6272 71.5226 22.7082 71.5548 22.7892 71.587C23.1131 71.7157 23.4532 71.8283 23.7772 71.9409C23.8744 71.9731 23.9715 72.0052 24.0849 72.0374C24.3603 72.1339 24.6518 72.2144 24.9272 72.3109C25.0082 72.327 25.0891 72.3592 25.1539 72.3752C25.4941 72.4718 25.8342 72.5683 26.1581 72.6648C26.2715 72.697 26.3687 72.7292 26.4821 72.7452C26.7736 72.8257 27.0652 72.89 27.3567 72.9544C27.4215 72.9705 27.5025 72.9866 27.5673 73.0026C27.9074 73.0831 28.2476 73.1474 28.6039 73.2279C28.7173 73.2439 28.8306 73.2761 28.944 73.2922C29.2518 73.3566 29.5433 73.4048 29.8511 73.4531C29.9158 73.4531 29.9806 73.4692 30.0292 73.4852C34.5968 74.2092 39.3587 74.1448 44.0397 73.2922C47.3762 72.6809 50.5671 71.3618 53.5473 69.5118C53.5797 69.4957 53.6121 69.4635 53.6607 69.4474C53.8874 69.3026 54.1304 69.1579 54.3572 68.997C54.3896 68.9809 54.4219 68.9487 54.4543 68.9326C54.9726 68.5787 55.491 68.2248 55.9931 67.8387C56.0255 67.8065 56.0578 67.7905 56.0902 67.7583C56.5924 67.3722 57.0945 66.9861 57.5804 66.5839C57.6128 66.5518 57.6452 66.5357 57.6776 66.5035C58.1635 66.1013 58.6494 65.667 59.1191 65.2326C59.1515 65.2005 59.1839 65.1683 59.2163 65.1361C59.686 64.7018 60.1395 64.2513 60.593 63.8009C60.6254 63.7687 60.6578 63.7365 60.6902 63.7044C61.1275 63.2539 61.5648 62.7874 62.0022 62.3048C62.0345 62.2726 62.0669 62.2244 62.0993 62.1922C62.5205 61.7096 62.9254 61.227 63.3303 60.7283C63.3627 60.68 63.3951 60.6479 63.4275 60.5996C63.8324 60.1009 64.205 59.6022 64.5937 59.1035C64.6261 59.0552 64.6585 59.007 64.6909 58.9748C65.0634 58.46 65.4197 57.9613 65.7761 57.4305C65.8085 57.3822 65.8408 57.3339 65.8732 57.2857C66.0514 57.0283 66.2134 56.7709 66.3754 56.5135C66.5373 56.2561 66.7155 55.9826 66.8775 55.7252C66.9099 55.677 66.9422 55.6126 66.9746 55.5644C67.1366 55.307 67.2824 55.0335 67.4444 54.7761C67.6063 54.5026 67.7521 54.2452 67.8979 53.9718C67.9303 53.9235 67.9627 53.8592 67.9951 53.7948C68.1408 53.5374 68.2866 53.2639 68.4162 53.0066C68.562 52.7331 68.6915 52.4757 68.8211 52.2022C68.8535 52.1379 68.8859 52.0896 68.9021 52.0252C69.0317 51.7679 69.1612 51.4944 69.2746 51.237C69.4042 50.9635 69.5176 50.7061 69.631 50.4326C69.6634 50.3683 69.6795 50.3039 69.7119 50.2396C69.8253 49.9822 69.9387 49.7087 70.0521 49.4513C70.1655 49.1779 70.2626 48.9205 70.376 48.647C70.4084 48.5826 70.4246 48.5183 70.457 48.4539C70.5542 48.1965 70.6514 47.9231 70.7486 47.6657C70.8457 47.3922 70.9267 47.1348 71.0239 46.8613C71.0401 46.797 71.0725 46.7326 71.0887 46.6683C71.1697 46.3948 71.2507 46.1374 71.3316 45.8639C71.4126 45.5905 71.4774 45.3331 71.5584 45.0596C71.5746 44.9952 71.5908 44.9309 71.607 44.8665C71.6718 44.5931 71.7528 44.3357 71.8014 44.0783C71.8823 43.7244 71.9633 43.3705 72.0281 43.0326C72.0443 42.92 72.0767 42.8235 72.0929 42.7109C72.1415 42.4535 72.1901 42.1961 72.2387 41.9387C72.2549 41.8261 72.2711 41.7135 72.3035 41.617C72.3521 41.3113 72.4006 40.9896 72.4492 40.6839C72.4492 40.6357 72.4492 40.6035 72.4654 40.5552C72.514 40.2174 72.5626 39.8635 72.595 39.5257C72.595 39.4131 72.6112 39.3005 72.6274 39.2039C72.6274 39.2039 72.6274 39.1879 72.6274 39.1718C72.757 39.2039 72.9028 39.1396 72.919 38.9787C73.1457 34.9248 72.7894 30.8226 71.7852 26.8813L71.8014 26.8331Z" fill="#91D2E2"/>
<path d="M17.7357 7.2713C19.2906 8.09174 21.2019 7.78609 22.9188 7.35174C24.004 7.06217 25.2673 6.77261 26.1582 7.44826C27.4377 8.41348 27.3405 10.9552 28.9279 11.1C29.9969 11.1965 30.6771 10.0222 31.6004 9.47522C32.7665 8.79956 34.451 9.31435 35.0179 10.5209L35.2933 10.3278C35.2933 10.3278 35.2447 10.167 35.3257 10.0865C35.7144 9.70043 36.1841 9.42696 36.7186 9.28217C36.7996 9.26609 36.9292 9.28217 36.9616 9.3787C37.3989 10.3439 38.0306 11.1965 38.8242 11.9043C39.4883 12.4835 40.3791 13.1109 41.3024 13.143C41.7883 13.143 42.1122 12.9178 42.42 12.5639C42.6791 12.2583 42.9707 12.0009 43.3918 11.9848C43.7967 11.9848 44.1693 12.1778 44.5418 12.3065C44.7523 12.387 44.9791 12.4513 45.2059 12.403C45.4488 12.3548 45.6432 12.1778 45.8052 12.017C46.4854 11.3413 47.3277 10.4083 46.9875 9.36261C46.9227 9.16957 47.1495 9.04087 47.3115 9.1213C48.1537 9.52348 48.9636 9.82913 49.903 9.84522C50.3727 9.84522 50.8262 9.81304 51.2797 9.71652C51.5227 9.66826 51.7657 9.60391 51.9762 9.4913C52.1544 9.39478 52.3164 9.26609 52.4945 9.16956C52.6079 9.1213 52.7699 9.16957 52.8023 9.26609C52.8023 9.26609 52.8023 9.26609 52.8023 9.29826C52.8347 9.33043 52.8509 9.36261 52.8833 9.41087C52.948 9.4913 53.029 9.58783 53.11 9.65217C53.3044 9.84522 53.6283 9.60391 53.8065 9.47522C53.9361 9.3787 54.0656 9.47522 54.1142 9.58783C54.4544 9.3787 54.7783 9.13739 55.0537 8.86391C56.4952 10.2635 58.3578 9.62 59.7184 8.10783C58.3093 6.94956 56.8191 5.90391 55.2318 4.97087C55.2318 4.97087 55.1994 4.95478 55.1832 4.9387C54.9403 4.79391 54.6973 4.64913 54.4382 4.52043C54.4058 4.50435 54.3734 4.48826 54.341 4.47217C54.098 4.32739 53.8389 4.1987 53.5959 4.07C53.5797 4.07 53.5473 4.05391 53.5311 4.03783C52.4783 3.49087 51.3769 2.99217 50.2593 2.54174C50.2431 2.54174 50.2107 2.52565 50.1945 2.50957C49.9678 2.41304 49.7248 2.33261 49.4981 2.23609C49.4171 2.20391 49.3361 2.17174 49.2551 2.15565C49.0446 2.07522 48.8178 1.99478 48.591 1.93043C48.4939 1.89826 48.3967 1.86609 48.2995 1.83391C48.0889 1.76957 47.8784 1.68913 47.6516 1.62478C47.5382 1.59261 47.4411 1.56043 47.3277 1.52826C47.1171 1.46391 46.9065 1.39957 46.6798 1.33522C46.5826 1.30304 46.4692 1.28696 46.372 1.25478C45.6594 1.06174 44.9467 0.884783 44.2178 0.74C44.0721 0.707826 43.9425 0.675652 43.7967 0.659565C43.6186 0.627391 43.4404 0.595217 43.246 0.563043C43.0841 0.53087 42.9221 0.498696 42.7601 0.482609C42.5819 0.450435 42.4038 0.434348 42.2256 0.402174C42.0474 0.37 41.8855 0.353913 41.7073 0.337826C41.5291 0.321739 41.3672 0.289565 41.189 0.273478C41.0108 0.257391 40.8165 0.225217 40.6383 0.20913C40.4763 0.193043 40.3144 0.176957 40.1524 0.16087C39.9418 0.144783 39.7313 0.128696 39.5369 0.112609C39.3911 0.112609 39.2454 0.0965217 39.0996 0.0804348C38.7594 0.0643478 38.4031 0.0482609 38.063 0.0321739C37.982 0.0321739 37.8848 0.0321739 37.8038 0.0321739C37.658 0 37.3827 0 37.1073 0C36.9778 0 36.832 0 36.7024 0C36.4757 0 36.2489 0 36.0221 0C35.8764 0 35.7306 0 35.5848 0.016087C35.3581 0.016087 35.1475 0.0321739 34.9207 0.0482609C34.775 0.0482609 34.6292 0.0643478 34.4834 0.0804348C34.2567 0.0965217 34.0299 0.112609 33.8032 0.128696C33.6574 0.128696 33.5278 0.16087 33.382 0.16087C33.1391 0.193043 32.8799 0.20913 32.637 0.241304C32.5236 0.241304 32.394 0.273478 32.2806 0.289565C31.9081 0.337826 31.5356 0.386087 31.163 0.450435C29.8835 0.659565 28.6039 0.933044 27.3405 1.27087C27.0652 1.3513 26.7898 1.41565 26.5145 1.49609C26.0772 1.62478 25.656 1.75348 25.2187 1.89826C25.0892 1.94652 24.9758 1.9787 24.8462 2.02696C24.5385 2.13957 24.2469 2.23609 23.9392 2.3487C23.8096 2.39696 23.68 2.44522 23.5504 2.49348C23.2589 2.60609 22.9511 2.73478 22.6596 2.84739C22.5462 2.89565 22.4328 2.94391 22.3195 2.99217C21.9793 3.13696 21.6554 3.28174 21.3314 3.42652C21.2667 3.4587 21.2019 3.49087 21.1371 3.50696C19.485 4.27913 17.9139 5.18 16.4399 6.1613C16.7315 6.54739 17.1526 6.9013 17.7357 7.22304V7.2713Z" fill="#3BAA4F"/>
<path d="M29.7377 72.2787C29.7377 72.2787 29.5596 72.2787 29.511 72.1822C28.7821 71.1365 29.1546 69.753 28.5067 68.7074C28.199 68.2087 27.6483 67.9674 27.1462 67.7422C26.6279 67.5009 26.142 67.2435 25.7695 66.8091C25.1702 66.1335 24.8786 65.2809 24.7004 64.4122C24.4737 63.4791 24.3603 62.4656 24.2793 61.5808C24.1659 60.8408 23.9878 60.1169 23.68 59.4413C23.1941 58.3956 22.3519 57.4787 21.1857 57.2374C21.0075 57.2052 20.9913 56.9961 21.0885 56.8835C20.3596 56.98 19.485 57.2535 18.4322 57.6556C17.6547 57.9452 15.4843 59.3287 14.8203 59.2C14.2048 59.0874 13.9294 58.3474 13.3949 58.0417C12.6337 57.5913 11.678 58.1222 10.9978 58.6691C10.3013 59.2161 9.49144 59.8595 8.633 59.6182C7.69357 59.3609 7.36963 58.1865 7.48301 57.2213C7.59639 56.2561 7.98512 55.323 7.85554 54.3578C7.74216 53.5213 7.24005 52.7813 7.01329 51.9608C6.75414 51.0278 6.88372 50.0465 7.01329 49.0974C7.17526 47.8426 7.35343 46.5556 7.98512 45.4617C10.0097 41.9869 16.2618 43.5152 15.9055 38.8017C15.8245 37.8043 15.0308 36.7908 14.0266 36.8552C15.0632 35.0374 15.7921 33.0426 16.1808 30.9674C14.3505 31.1443 12.3745 30.4204 11.3541 28.9082C10.3337 27.38 10.5604 25.0635 12.0506 23.9856C13.5245 22.8917 16.0512 23.5674 16.5371 25.3369C17.8491 24.2108 19.8413 25.4495 20.9589 26.7687C22.0765 28.0878 23.5019 29.6965 25.1702 29.2461C25.4617 29.1656 25.7371 29.0208 25.9638 28.8278C27.2758 27.7178 26.6441 25.4335 25.2511 24.4039C25.0244 24.243 24.7976 24.0982 24.5547 23.9695C23.2913 23.31 21.785 23.1169 20.3758 22.763C18.7075 22.3448 16.9097 21.4761 16.3752 19.8513C15.3062 16.5695 13.2977 18.0978 10.7386 16.3282C9.78299 15.6687 9.02173 14.7517 8.21187 13.8991C7.11048 15.2987 6.12246 16.7787 5.24782 18.323C5.24782 18.323 5.24782 18.3391 5.24782 18.3552C4.87529 18.9987 4.53515 19.6582 4.19501 20.3339C4.19501 20.3339 4.19501 20.3661 4.17881 20.3822C3.85487 21.0417 3.54713 21.7174 3.25558 22.4091C3.25558 22.4252 3.25558 22.4413 3.23939 22.4574C2.94784 23.1491 2.67249 23.8569 2.42954 24.5648C2.34855 24.79 2.26756 25.0152 2.20278 25.2404C2.20278 25.2887 2.17038 25.3208 2.15419 25.3691C1.94362 26.0287 1.73306 26.7043 1.5549 27.38C1.5387 27.4443 1.5225 27.5087 1.5063 27.573C1.36053 28.1039 1.24715 28.6187 1.13377 29.1495C1.16617 29.1978 1.16617 29.2461 1.16617 29.2943C0.761241 31.5626 0.55068 33.8791 0.534483 36.1795C0.502089 40.2495 1.08518 44.3356 2.21897 48.2448C3.36896 52.17 5.08585 55.9343 7.33723 59.3609C7.40202 59.4574 7.36963 59.5539 7.30484 59.6182C7.45061 59.8274 7.59639 60.0204 7.74216 60.2295C7.98512 60.5513 8.21187 60.8569 8.45483 61.1626C8.51962 61.243 8.56821 61.3074 8.633 61.3878C8.87595 61.6935 9.11891 61.983 9.37806 62.2726C9.39426 62.2887 9.41045 62.3048 9.42665 62.3209C9.66961 62.5943 9.91256 62.8678 10.1555 63.1252C10.2203 63.1896 10.2851 63.2539 10.3499 63.3343C10.609 63.6078 10.8682 63.8813 11.1435 64.1387C11.1759 64.1709 11.2083 64.203 11.2407 64.2352C11.4837 64.4765 11.7428 64.7017 11.9858 64.943C12.0506 65.0074 12.1154 65.0717 12.1963 65.1361C12.4717 65.3774 12.747 65.6348 13.0386 65.86C13.0872 65.8922 13.1358 65.9404 13.1682 65.9726C13.4111 66.1817 13.6703 66.3909 13.9294 66.5839C13.9942 66.6322 14.0752 66.6965 14.14 66.7448C14.4315 66.97 14.7231 67.1791 15.0146 67.4043C15.0794 67.4526 15.128 67.4848 15.1928 67.533C15.4519 67.71 15.7111 67.8869 15.9702 68.0639C16.0512 68.1122 16.116 68.1604 16.197 68.2087C16.5048 68.4017 16.7963 68.5948 17.104 68.7878C17.1688 68.8361 17.2498 68.8682 17.3146 68.9165C17.5738 69.0774 17.8329 69.2222 18.1083 69.3669C18.1892 69.4152 18.2702 69.4474 18.335 69.4956C18.6428 69.6726 18.9667 69.8335 19.2744 69.9943C19.3554 70.0426 19.4364 70.0748 19.5174 70.123C19.7766 70.2517 20.0519 70.3804 20.3272 70.5091C20.4082 70.5413 20.4892 70.5896 20.5702 70.6217C20.8941 70.7665 21.2181 70.9113 21.542 71.0561C21.6392 71.0882 21.7202 71.1365 21.8174 71.1687C22.0927 71.2813 22.3681 71.3939 22.6434 71.4904C22.7244 71.5226 22.8054 71.5548 22.8864 71.5869C23.2103 71.7156 23.5505 71.8282 23.8744 71.9409C23.9716 71.973 24.0688 72.0052 24.1821 72.0374C24.4575 72.1339 24.749 72.2143 25.0244 72.3109C25.1054 72.3269 25.1864 72.3591 25.2511 72.3752C25.5913 72.4717 25.9314 72.5682 26.2554 72.6648C26.3687 72.6969 26.4659 72.7291 26.5793 72.7452C26.8708 72.8256 27.1624 72.89 27.4539 72.9543C27.5187 72.9704 27.5997 72.9865 27.6645 73.0026C28.0046 73.083 28.3448 73.1474 28.7011 73.2278C28.8145 73.2439 28.9279 73.2761 29.0413 73.2922C29.349 73.3565 29.6405 73.4048 29.9483 73.453C30.0131 73.453 30.0779 73.4691 30.1265 73.4852C30.0293 73.083 29.9159 72.6648 29.8187 72.2626L29.7377 72.2787Z" fill="#3BAA4F"/>
<path d="M72.4979 38.9304C72.6275 36.6622 72.5789 34.3939 72.3198 32.1417C71.8825 28.2004 70.8297 24.3235 69.1776 20.7039C68.805 19.8835 68.3839 19.063 67.9466 18.2748C67.655 18.7413 67.3149 19.1596 66.8776 19.4974C65.4199 20.6396 63.3628 20.4948 61.5164 20.5109C61.2572 20.5109 60.9819 20.5109 60.7065 20.543C59.0706 20.6878 57.3699 21.2348 56.7382 22.6987C56.4953 23.2456 56.4467 23.873 56.0742 24.3396C55.3615 25.2243 54.0009 25.0474 52.8672 25.0635C50.7291 25.0957 48.6397 26.1574 47.3602 27.8465C46.5989 28.8761 46.113 30.2596 46.6475 31.4339C46.9066 32.013 47.3926 32.4635 47.8785 32.8657C49.401 34.1043 51.1665 35.0213 53.0615 35.5361C53.3855 36.7587 53.6932 37.9974 53.5636 39.2522C53.4341 40.507 52.7376 41.7617 51.5714 42.2443C50.5348 42.6626 49.3686 42.3891 48.2672 42.5661C46.7771 42.7913 45.5461 43.7887 44.1856 44.4483C42.2419 45.3813 40.0229 45.5904 38.0469 46.4752C36.4758 47.183 35.0018 48.5504 34.6941 50.1591C34.6941 50.1752 34.7103 50.1913 34.7103 50.2074C34.8723 51.2209 35.2124 52.2183 35.7793 53.0709C36.0222 53.4248 36.2814 53.7143 36.5891 53.9717C37.0427 54.2774 37.5448 54.5509 38.0631 54.7922C38.1765 54.8243 38.2736 54.8726 38.387 54.8887C39.3102 55.1461 40.2497 55.323 41.1729 55.6448C41.999 55.9343 42.8088 56.2722 43.5701 56.6743C45.125 57.4787 46.5665 58.5083 47.8461 59.7148C47.9595 59.8113 48.0728 59.9239 48.17 60.0365C49.4334 61.1304 50.4862 62.4013 51.2151 63.9296C51.2151 63.9617 51.2313 63.9778 51.2475 64.01C52.1059 65.4739 52.7538 67.0504 53.1587 68.6913C53.1749 68.7556 53.1587 68.82 53.1263 68.8522C53.1425 68.8843 53.1749 68.9326 53.1911 68.9648C53.3045 69.1739 53.4179 69.3509 53.5474 69.5117C53.8228 69.3509 54.0819 69.1739 54.3411 68.997C54.3735 68.9809 54.4059 68.9487 54.4383 68.9326C54.9566 68.5787 55.4749 68.2248 55.977 67.8387C56.0094 67.8065 56.0418 67.7904 56.0742 67.7583C56.5763 67.3722 57.0784 66.9861 57.5643 66.5839C57.5967 66.5517 57.6291 66.5356 57.6615 66.5035C58.1474 66.1013 58.6333 65.667 59.103 65.2326C59.1354 65.2004 59.1678 65.1683 59.2002 65.1361C59.6699 64.7017 60.1234 64.2513 60.5769 63.8009C60.6093 63.7687 60.6417 63.7365 60.6741 63.7043C61.1114 63.2539 61.5488 62.7874 61.9861 62.3048C62.0185 62.2726 62.0509 62.2243 62.0833 62.1922C62.5044 61.7096 62.9093 61.227 63.3142 60.7283C63.3466 60.68 63.379 60.6478 63.4114 60.5996C63.8163 60.1009 64.1889 59.6022 64.5776 59.1035C64.61 59.0552 64.6424 59.007 64.6748 58.9748C65.0473 58.46 65.4037 57.9613 65.76 57.4304C65.7924 57.3822 65.8248 57.3339 65.8572 57.2856C66.0353 57.0283 66.1973 56.7709 66.3593 56.5135C66.5213 56.2561 66.6994 55.9826 66.8614 55.7252C66.8938 55.677 66.9262 55.6126 66.9586 55.5643C67.1205 55.307 67.2663 55.0335 67.4283 54.7761C67.5903 54.5026 67.736 54.2452 67.8818 53.9717C67.9142 53.9235 67.9466 53.8591 67.979 53.7948C68.1248 53.5374 68.2705 53.2639 68.4001 53.0065C68.5459 52.733 68.6755 52.4756 68.805 52.2022C68.8374 52.1378 68.8698 52.0896 68.886 52.0252C69.0156 51.7678 69.1452 51.4943 69.2585 51.237C69.3881 50.9635 69.5015 50.7061 69.6149 50.4326C69.6473 50.3683 69.6635 50.3039 69.6959 50.2396C69.8092 49.9822 69.9226 49.7087 70.036 49.4513C70.1494 49.1778 70.2466 48.9204 70.3599 48.647C70.3923 48.5826 70.4085 48.5183 70.4409 48.4539C70.5381 48.1965 70.6353 47.923 70.7325 47.6657C70.8297 47.3922 70.9106 47.1348 71.0078 46.8613C71.024 46.797 71.0564 46.7326 71.0726 46.6683C71.1536 46.3948 71.2346 46.1374 71.3156 45.8639C71.3966 45.5904 71.4613 45.333 71.5423 45.0596C71.5585 44.9952 71.5747 44.9309 71.5909 44.8665C71.6557 44.593 71.7367 44.3357 71.7853 44.0783C71.8663 43.7243 71.9473 43.3704 72.012 43.0326C72.0282 42.92 72.0606 42.8235 72.0768 42.7109C72.1254 42.4535 72.174 42.1961 72.2226 41.9387C72.2388 41.8261 72.255 41.7135 72.2874 41.617C72.336 41.3113 72.3846 40.9896 72.4332 40.6839C72.4332 40.6357 72.4332 40.6035 72.4494 40.5552C72.498 40.2174 72.5465 39.8635 72.5789 39.5256C72.5789 39.413 72.5951 39.3004 72.6113 39.2039C72.6113 39.2039 72.6113 39.1878 72.6113 39.1717C72.5303 39.1557 72.4656 39.0913 72.4656 38.9787L72.4979 38.9304Z" fill="#3BAA4F"/>
</g>
<defs>
<clipPath id="clip0_172_100">
<rect width="73" height="74" fill="white"/>
</clipPath>
</defs>
</svg>
